<svg width="20" height="20" viewBox="0 0 20 20" fill="none" xmlns="http://www.w3.org/2000/svg">
<path opacity="0.4" d="M14.3402 0H5.67021C2.28021 0 0.000213623 2.38 0.000213623 5.92V14.09C0.000213623 17.62 2.28021 20 5.67021 20H14.3402C17.7302 20 20.0002 17.62 20.0002 14.09V5.92C20.0002 2.38 17.7302 0 14.3402 0Z" fill="#91C750"/>
<path d="M8.81326 13.248C8.58926 13.248 8.36526 13.163 8.19426 12.992L5.82126 10.619C5.47926 10.277 5.47926 9.72296 5.82126 9.38196C6.16326 9.03996 6.71626 9.03896 7.05826 9.38096L8.81326 11.136L12.9413 7.00796C13.2833 6.66596 13.8363 6.66596 14.1783 7.00796C14.5203 7.34996 14.5203 7.90396 14.1783 8.24596L9.43226 12.992C9.26126 13.163 9.03726 13.248 8.81326 13.248Z" fill="#91C750"/>
</svg>
