<svg width="22" height="16" fill="none" xmlns="http://www.w3.org/2000/svg"><path d="M18.333 2.5S16.232.855 13.75.667l-.224.448c2.244.55 3.273 1.335 4.35 2.302C16.02 2.47 14.19 1.583 11 1.583c-3.19 0-5.02.887-6.875 1.834 1.076-.967 2.3-1.84 4.349-2.302L8.25.667C5.647.912 3.667 2.5 3.667 2.5S1.32 5.904.917 12.583c2.365 2.729 5.958 2.75 5.958 2.75l.752-1a9.183 9.183 0 01-3.96-2.666C5.15 12.79 7.39 13.958 11 13.958c3.61 0 5.85-1.168 7.333-2.291a9.177 9.177 0 01-3.96 2.665l.752 1.001s3.593-.021 5.958-2.75c-.402-6.68-2.75-10.083-2.75-10.083zM8.021 10.75c-.887 0-1.604-.82-1.604-1.833s.718-1.834 1.604-1.834c.886 0 1.604.82 1.604 1.834 0 1.013-.718 1.833-1.604 1.833zm5.958 0c-.886 0-1.604-.82-1.604-1.833s.718-1.834 1.604-1.834c.887 0 1.604.82 1.604 1.834 0 1.013-.717 1.833-1.604 1.833z" fill="#9FA4B0"/></svg>