<svg width="22" height="14" fill="none" xmlns="http://www.w3.org/2000/svg"><path d="M21.883 12.06a1.505 1.505 0 00-.074-.143c-.382-.688-1.111-1.531-2.188-2.532l-.023-.023-.011-.011-.012-.012h-.011c-.489-.465-.798-.779-.928-.939-.237-.305-.29-.615-.16-.928.091-.237.435-.737 1.03-1.5.314-.405.562-.73.745-.974 1.321-1.756 1.894-2.879 1.718-3.367l-.068-.115c-.046-.068-.164-.131-.355-.189-.191-.057-.436-.066-.733-.028l-3.3.022a.428.428 0 00-.228.006l-.15.035-.057.028-.045.035a.508.508 0 00-.126.12.787.787 0 00-.115.2 18.72 18.72 0 01-1.225 2.578c-.283.473-.542.884-.78 1.231a5.923 5.923 0 01-.595.767c-.16.165-.305.296-.435.396-.13.099-.23.141-.298.126a8.342 8.342 0 01-.195-.046.761.761 0 01-.257-.28 1.256 1.256 0 01-.132-.448 4.903 4.903 0 01-.04-.464 9.701 9.701 0 01.005-.55c.008-.236.012-.397.012-.48 0-.29.006-.606.017-.946.012-.34.02-.609.029-.807.008-.199.011-.409.011-.63 0-.221-.013-.395-.04-.521a1.784 1.784 0 00-.12-.367.617.617 0 00-.235-.275 1.323 1.323 0 00-.383-.154c-.405-.092-.92-.142-1.547-.15-1.42-.014-2.333.077-2.738.276a1.55 1.55 0 00-.435.343c-.137.168-.156.26-.057.275.458.069.782.233.973.493l.07.137c.053.1.106.275.16.527.053.252.087.53.103.836a8.915 8.915 0 010 1.432c-.039.397-.075.706-.11.928-.034.221-.085.4-.154.538a2.273 2.273 0 01-.137.252.197.197 0 01-.058.057.858.858 0 01-.309.058c-.107 0-.237-.054-.39-.16a2.748 2.748 0 01-.475-.442 5.896 5.896 0 01-.555-.784c-.206-.336-.42-.733-.642-1.192l-.183-.332a28.575 28.575 0 01-.47-.933 17.998 17.998 0 01-.526-1.186.755.755 0 00-.275-.367l-.058-.034a.784.784 0 00-.183-.097 1.216 1.216 0 00-.263-.075l-3.139.023c-.32 0-.538.073-.653.218l-.046.068A.37.37 0 000 1.768c0 .084.023.187.069.309a37.802 37.802 0 001.495 3.116 34.79 34.79 0 001.403 2.416c.397.611.801 1.188 1.214 1.73.412.542.685.89.819 1.042.133.153.238.268.315.344L5.6 11a6.8 6.8 0 00.808.659c.355.255.748.507 1.18.756a6.4 6.4 0 001.506.607c.573.156 1.13.22 1.672.189h1.318c.267-.023.47-.107.607-.252l.045-.058a.762.762 0 00.086-.211 1.16 1.16 0 00.04-.315 3.778 3.778 0 01.075-.888c.057-.263.122-.462.194-.596a1.467 1.467 0 01.442-.504.762.762 0 01.091-.04c.183-.06.399-.002.647.178.249.18.481.401.7.665.217.263.478.559.784.887.305.329.573.573.802.733l.229.138c.152.091.351.175.595.252.244.076.458.095.642.057l2.932-.046c.29 0 .516-.048.676-.143.16-.095.255-.2.286-.315a.886.886 0 00.006-.39 1.439 1.439 0 00-.08-.303z" fill="#9562EE"/></svg>