<svg width="22" height="16" fill="none" xmlns="http://www.w3.org/2000/svg"><path d="M21.065 1.895C20.468.833 19.821.638 18.502.564c-1.317-.09-4.63-.126-7.5-.126-2.874 0-6.188.037-7.504.125C2.182.638 1.533.833.931 1.895.316 2.955 0 4.781 0 7.995v.012c0 3.2.316 5.04.93 6.09.603 1.061 1.25 1.254 2.567 1.343 1.317.077 4.63.123 7.506.123 2.87 0 6.182-.046 7.5-.122 1.319-.089 1.967-.281 2.563-1.343.62-1.049.934-2.889.934-6.09v-.011c0-3.216-.314-5.042-.935-6.102zM8.25 12.125v-8.25L15.125 8 8.25 12.125z" fill="#9562EE"/></svg>