<svg width="20" height="20" viewBox="0 0 20 20" fill="none" xmlns="http://www.w3.org/2000/svg">
<path opacity="0.4" d="M14.3399 0H5.66994C2.27994 0 -6.10352e-05 2.38 -6.10352e-05 5.92V14.09C-6.10352e-05 17.62 2.27994 20 5.66994 20H14.3399C17.7299 20 19.9999 17.62 19.9999 14.09V5.92C19.9999 2.38 17.7299 0 14.3399 0Z" fill="#E53935"/>
<path d="M13.0155 11.7705L11.2365 9.9925L13.0145 8.2145C13.3565 7.8735 13.3565 7.3185 13.0145 6.9775C12.6725 6.6335 12.1195 6.6345 11.7775 6.9765L9.99852 8.7545L8.21952 6.9745C7.87752 6.6325 7.32352 6.6345 6.98152 6.9745C6.64052 7.3165 6.64052 7.8715 6.98152 8.2125L8.76152 9.9925L6.98552 11.7675C6.64352 12.1095 6.64352 12.6645 6.98552 13.0045C7.15652 13.1765 7.37952 13.2615 7.60352 13.2615C7.82852 13.2615 8.05152 13.1765 8.22252 13.0055L9.99852 11.2295L11.7785 13.0085C11.9495 13.1795 12.1725 13.2645 12.3965 13.2645C12.6205 13.2645 12.8445 13.1785 13.0155 13.0085C13.3575 12.6665 13.3575 12.1125 13.0155 11.7705Z" fill="#E53935"/>
</svg>
