<svg width="21" height="20" fill="none" xmlns="http://www.w3.org/2000/svg"><g clip-path="url(#clip0_684_14608)"><path d="M10.5 20c5.523 0 10-4.477 10-10s-4.477-10-10-10S.5 4.477.5 10s4.477 10 10 10z" fill="#0052B4"/><path d="M10.5 3.913l.324.997h1.048l-.848.615.324.997-.848-.616-.848.616.324-.997-.847-.615h1.047l.324-.997zM6.196 5.696l.934.475.74-.74-.163 1.034.933.476-1.035.164-.163 1.035-.476-.934-1.035.164.741-.74-.476-.934zM4.413 10l.997-.324V8.63l.615.847.997-.323-.616.847.616.848-.997-.324-.615.848v-1.048L4.413 10zm1.783 4.304l.476-.934-.74-.74 1.034.164.476-.934.163 1.035 1.035.164-.933.476.164 1.034-.741-.74-.934.475zm4.304 1.783l-.324-.996H9.13l.847-.616-.324-.996.848.615.848-.615-.324.996.848.616h-1.048l-.324.996zm4.304-1.783l-.934-.476-.74.741.164-1.035-.934-.475 1.035-.164.164-1.035.475.934 1.035-.164-.74.74.475.934zM16.587 10l-.996.324v1.048l-.616-.848-.997.324.616-.848-.616-.847.997.323.616-.847v1.047l.996.324zm-1.783-4.304l-.476.933.741.741-1.035-.164-.475.934-.164-1.035-1.035-.164.934-.476-.164-1.034.74.74.934-.475z" fill="#FFDA44"/></g><defs><clipPath id="clip0_684_14608"><path fill="#fff" transform="translate(.5)" d="M0 0h20v20H0z"/></clipPath></defs></svg>