<svg width="21" height="20" fill="none" xmlns="http://www.w3.org/2000/svg"><g clip-path="url(#clip0_684_14605)"><path d="M10.5 20c5.523 0 10-4.477 10-10s-4.477-10-10-10S.5 4.477.5 10s4.477 10 10 10z" fill="#F0F0F0"/><path d="M19.878 13.478A9.977 9.977 0 0020.5 10c0-1.223-.22-2.395-.622-3.478H1.122A9.979 9.979 0 00.5 10c0 1.223.22 2.395.622 3.478l9.378.87 9.378-.87z" fill="#0052B4"/><path d="M10.5 20c4.3 0 7.965-2.714 9.378-6.522H1.122A10.004 10.004 0 0010.5 20z" fill="#D80027"/></g><defs><clipPath id="clip0_684_14605"><path fill="#fff" transform="translate(.5)" d="M0 0h20v20H0z"/></clipPath></defs></svg>