<svg width="20" height="14" fill="none" xmlns="http://www.w3.org/2000/svg"><path fill-rule="evenodd" clip-rule="evenodd" d="M16.586 3.251l-.095.218-2.116 4.853c-.338.79-.698 1.649-1.058 2.416-.317.664-.317.606-.317 1.453v1.798l6.982.011v-2.92h-3.735l2.222-5.116c.37-.87.74-1.706 1.121-2.564.297-.676.392-.618.392-1.5 0-.538.053-1.408-.021-1.9h-6.95L13 2.919l3.734.011-.148.321zM.723 7.788l.011.148.817 6.053L3.686 14h1.623l.579-8.12c.022-.296-.046-.342.204-.364L6.705 14h3.758c.215-1.062.295-2.34.454-3.426.17-1.165 1.078-7.708 1.078-8.576.011-.65 0-1.313 0-1.964L9.259.011c-.068 1.382-.193 2.787-.295 4.168l-.261 3.655c-.023.285.057.4-.17.456L7.886 0H4.094l-.181 2.695c-.012.126.01.365-.069.422.069.389-.238 3.883-.295 4.876-.011.263.034.195-.113.286-.136-.08-.08.16-.125-.434a6.875 6.875 0 00-.046-.502c-.079-.994-.454-7-.544-7.32L.008 0c0 2.135-.069 1.884.204 4.008.17 1.268.363 2.524.51 3.78z" fill="#515B76"/></svg>