<svg width="38" height="28" fill="none" xmlns="http://www.w3.org/2000/svg"><path d="M17.783 16.424l-.142-.279c-.103 0-.157-.002-.205 0-.056.003-.12-.086-.12-.086s-.092.081-.262.068l-.048.864s.2.032.206.078c.006.037-.04.096-.09.096-.051 0-.085-.06-.085-.06l-.044-.006-.239 3.476-.027-3.57-.18-.066-.076.356-.007 3.182-.24.784-.005 1.024.085.346.004.581-.111.41-.011 1.52-.19 2.316-.114-1.561-.117-.322.006-2.638-.057-.498s-.07 1.626-.094 2.233l-.18-2.64.021-1.733-.153-.628-.003-1.391-.239-.704v-1.272s-.256-.07-.355-.152a5.419 5.419 0 01-.21-.191l-.32.008-1.027-.554-.14-.016-.175-.264.195.2s.713.154.973.195c.103.017.25.034.183-.168-.005-.015.008-.04.017-.057.071-.133.093-.241-.107-.252-.018 0-.073-.034-.077-.048-.017-.063-.03-.168-.1-.163-.13.01-.278-.063-.362-.088-.076-.023-.149 0-.149 0s-.084-.09-.124-.102c-.067-.017-.103-.004-.154-.008-.21-.02-.242.091-.304.256-.209-.283-.3-.181-.45-.257a2.701 2.701 0 00-.223-.09s-.112.05-.168.097c-.027.022-.108.024-.123.005a.343.343 0 00-.335-.144.45.45 0 01-.24-.053l-.009.316-.168.51-.045 1.101-.092.451-.027-2.368-.064-.004.006 3.196.027.053.006.385-.144.34-.016.355.057.115-.218 4.377-.038-2.986-.058-.123-.064 1.86-.183.581.016 1.472-.18.378v.553l.025.09-.155 1.866-.119-2.04-.13-.667-.012-1.292-.092-.314.002-1.427-.14-.977-.001-2.143-.09-.331.008-1.288-.074-.311-.24 4.256-.043-5.293-.095-.092-.002-.917c-.35.06-.644-.067-.944-.196-.139-.06-.492-.027-.595-.08-.106-.054-.224-.144-.224-.144s-.222.023-.35-.018c-.251-.034-.304-.125-.414-.234-.36-.354-.764-.594-1.269-.631-.163-.012-.289-.094-.407-.212a.85.85 0 00-.737-.246.446.446 0 01-.206-.022c-.227-.085-.451-.18-.676-.272-.083-.035-.246-.122-.246-.122s-.07.039-.107.062c-.017.01-.064-.004-.083-.022-.156-.15-.302-.302-.317-.545-.006-.087.015-.136-.02-.171-.118-.119-.264-.26-.263-.426.002-.187-.01-.444-.004-.63.01-.313.153-.531.412-.714a.826.826 0 01.41-.163c.176-.015.371.023.536.031.443.023.336.068.451.083.084.012.21.012.294.006.612-.025.666.035.994.267.299.211.646.078.816.2.056.039.2.215.376.276.266.092.344.072.507.115.489.13.603.134.877.12l.026.042.111.016.086-.07.841.017-.05-.773-.17-.536.232-.95V7.083l.033-.027.001-.124-.034-.042.001-.112.035-.006.001-.188-.045-.044.006-.401.223-.492.025-.457.297-.239s.155-.03.212-.051a2.58 2.58 0 00.345-.156c.444-.038.673-.147.673-.147l.085-.29c.035.115.12.435.12.435l.164-.062s.095.179.194.191l.07-.298.108.035.088-.963.139 1.723.059.134s.04-.291.052-.349c.01.16.083.648.083.648s.213.402.275.605c0 0-.068.222-.125.56-.075.095-.205.187-.193.464.011.256.049.468.049.468l-.107.127.012 1.922-.304 1.156.786.068.282.132.367-.01.707.175.13-.029.28.168.175-.016s.024.033.052.043l-.036.157.049.067.137.016.273.23.167-.088-.106-2.254.095-.18-.001-.666-.3-.872-.008-1.593-.082-.095-.023.803-.116-1.357-.136-.219v-.305l-.037-.019c.001-.06.035-.239.035-.239l-.055-.07.09-.899s.151-.057.284-.388c.112-.282.223-.379.393-.525.109-.093.202-.206.314-.294.127-.1.159-.21.402-.268.202-.046.35-.267.35-.267l.072.084.168-.5.117-.04.17-1.31.092 1.63.078.013.076-.57.103 1.037.063.023.022-.314.083-.109.06-.66.07.91.04.128.04-.144.047.472.158.095.001.188.158.246s.023.296.02.373c-.004.077-.008.23-.008.23l.055.25-.09.16-.005.097.037.031.007.895-.095.456.038.248-.163 2.987-.03-2.204-.112.507-.008 2.185.146.488.01 2.436s.094-.048.218-.043c.18.006.33.152.593.197.085.06.209.205.304.25.027.013.205.05.205.05l.184.17a.719.719 0 01.417.08c.232.062.43.166.56.372.087.14.207.223.292.272.085.05.466.04.466.04l-.004-2.315-.198-.757-.018-1.7.216-.432-.02-1.437-.062-.212.004-.512-.054.068s-.039 1.598-.057 2.156c-.008 0-.154-2.928-.154-2.928l-.132-.271s.122-.339.122-.396c0-.138-.052-.202-.052-.202l-.017-.507s.101-.218.145-.493c.03-.189.031-.415.031-.415l.373-.455.01-.34.154-.18.078-1.481.08 1.115.161.598.078-.084v-.388l.086.154.03-.644.038.568.129.24.175-.046.378.224.14-.005.076-.273.082.423.125.087.043.142s.175.106.208.141c.086.13.25.584.25.584l.041.528c-.27.58-.3.865-.298 1.217.002.415-.073 1.328-.073 1.328l.164.757-.117 4.766-.096.446-.002-3.298-.034-.063-.13.606-.003 3.141-.068.578-.008.586s.082.065.2.09c.27.213.596.26.959.202.024-.004.05-.001.076-.003.137-.009.236.045.285.181.044.126.13.16.258.167.148.008.212-.008.358.024.098.022.113.132.374.132.17.008.307.079.445.169.104.069.358.188.358.188l-.045-1.692.03-1.561-.082-.366-.046-.056-.095 1.101-.22-1.488-.01-1.763.129-.46v-.702l-.105-.526.015-.208-.064-.037-.004-.134-.03-.05.187-.977.259-.23.211-.544.052.205.052.034.08-1.32.162 1.008.118.104.094-.044.127-1.77.102 1.642.07-.665.055.797.063-.083.052.1.068.004.048.084.114-.005c.097.1.239.132.3.175.097.068.23.088.23.088s.192.298.279.503c.069.162.17.504.17.504l-.026.57.064.205-.164.447.191.282-.234 5.299-.091-3.476-.053.206.007.957-.21.485s-.01 1.625 0 2.364c.002.255-.01.4-.01.4l-.234.583-.004.392.18.1c.29-.05.603-.036.857.133.094.062.214.088.326.117.155.041.12.002.278.024.055.007.248.126.303.095.057-.03.109-.186.192-.2.083-.016.171.127.172.189 0 .057.005.163.005.163s.205.116.302.114c.421 0 .643.157 1 .225.257.05.372.064.625.135.09.024.253.041.34.118.035.032.022.114.207.167.1.03.395.026.585.14.36.215.606.281.863.262a.464.464 0 01.276.056c.236.16.495.228.77.258.062.008.15.055.21.072 0 .01-.105.063-.222.061-.085 0-.177-.054-.23-.053-.291.008-.248-.019-.44-.06-.102-.022-.115.012-.18.094-.066.08-.17.144-.256.128-.096-.018-.178-.125-.345-.148-.39-.057-.307-.153-.626-.276a2.188 2.188 0 00-.415-.06c-.36 0-.214-.158-.422-.174-.207-.016-.213-.15-.3-.179-.07-.024-.088.021-.297.012-.045-.003-.113.007-.146-.02-.306-.252-.684-.192-1.031-.264-.35-.018-.43-.115-.614-.123-.13-.006-.367.112-.367.112s-.011.11.004.155c.056.176.214.254.45.218.145-.022.283-.053.368.117.007.014.034.023.053.025.069.013.15-.002.214.01.079.015.138.057.21.072 1.498.303 1.497.465 1.825.465.19 0 .252.02.538.02.041 0 .114.176.627.296.122.04.169.071.613.071.097 0 .449.226.625.234.04.001.137-.006.139-.07.002-.051-.051-.102-.092-.121-.096-.046-.2-.068-.3-.107a.575.575 0 01-.144-.082c-.018-.014-.033-.036-.025-.081.01-.045.093-.014.093-.014s.169.148.606.214c.12.052.416.266.54.306.33-.003.435.048.515.117.042.036.083.048.169.064.109.02.34-.03.327.025-.011.096-.066.15-.178.123-.079-.018-.16-.036-.232-.071-.175-.086-.344-.17-.55-.143-.067.008-.145-.038-.213-.07-.152-.071-.297-.085-.449.007-.162.099-.331.069-.498.006a6.588 6.588 0 01-.364-.163s-.267-.012-.37.023c.003-.077-.007-.184-.125-.156-.117.029-.061.095-.015.135-.088.008-.191.062-.28.053-.09-.008-.166-.078-.255-.19-.036-.047-.093-.108-.146-.116-.033-.005-.052.035-.096.037-.039.001-.132-.11-.203-.12-.14-.019-.244-.086-.322-.114-.146-.053-.25-.04-.25-.04s-.123-.079-.185-.1c-.177-.065-.203-.036-.213.148.015.166-.062.223-.106.317-.008.014-.074.027-.138-.04l.005-.047c.049-.034.116-.056.14-.102a.182.182 0 00.018-.148c-.008-.03-.024-.1-.066-.114-.024-.008-.107.05-.132.043-.036-.01-.055-.116-.112-.069-.057.048-.02.098-.01.143.029.145-.041.256-.176.263-.08.003-.129-.027-.107-.12l.025-.123c.025-.133-.027-.206-.027-.206s-.439-.152-.561-.174c-.072-.013-.16.023-.174.065-.046.144-.018.176.054.272.016.02.037.05.062.066.067.043.131.079.071.18-.057.094-.12.147-.236.114-.123-.045-.167-.085-.363-.089a.445.445 0 01-.174-.084c-.162-.148-.365-.19-.577-.19-.053 0-.106-.04-.137-.082-.1-.136-.177-.168-.328-.172-.116-.004-.292.003-.408-.01-.098.006-.236-.021-.236-.021l-.017-.116-.234-.012.087.783-.29 4.683-.08-3.392-.045-.008-.075.298v2.043l-.205.613-.237 3.002-.19-2.992-.017-1.624-.146-.576.005-.877.088-.347v-1.543l-.144-.414s-.028-.002-.138.027a.421.421 0 01-.152-.02l-.047 1.679-.047-1.667c-.116.065-.17.102-.242.158-.24.19-.484.283-.662.258-.11-.015-.176.048-.24.054-.033.003-.077-.014-.086-.037-.047-.117-.145-.13-.245-.155-.182-.042-.362-.095-.544-.14-.285-.07-.569-.094-.849.025-.026.01-.063.024-.089.009-.126-.084-.248-.035-.365-.003-.218.059-.232-.103-.232-.103l-.054-.05-.178.694.006 3.166-.253.602v.828l-.258 2.143-.168-2.839.023-1.627-.165-.45s-.107 1.769-.152 2.482l-.138-2.451-.163-.586.104-.53.006-1.732-.081-.035s-.11-.307-.184-.307-.683-.037-.683-.037-.444.138-.65.223c-.127.052-.192.023-.325.023-.018 0-.063.044-.114.081-.09.063-.168.072-.244-.013-.106-.12-.203-.117-.203-.117s-.177.072-.195.068a1.05 1.05 0 01-.195-.06c-.007-.003.002-.095.002-.095l.154-.083.103.037.062.05.095-.018.085.055s.055-.01.072-.008c.01.003.03-.172.03-.172l.02.189c.102.023.123-.115.123-.177 0-.08-.049-.17-.049-.17l-.04-.013-.061.068-.056-.108-.163-.107-.257-.01-.183-.334zm.093.38s.194.11.153.143c-.017.013-.1-.077-.186-.076-.065.001-.15.09-.15.09l-.126-.002-.162.154-.094-.003-.062.062.016-.09s.174-.16.193-.19c.04-.062.066-.267.066-.267s.063.02.147.02l.075-.15.114.167.016.141zm5.492-.382l-.021.22s.116.02.207.03c.045.005.087.083.082.269a.344.344 0 00.248.021c.078-.02.152-.061.23-.073.119-.016.26-.058.354-.012.387.19.778.128 1.172.083a1.83 1.83 0 00.003-.176c-.004-.103-.044-.07-.189-.039-.115.026-.183-.017-.244-.104-.06-.083-.125-.163-.189-.242-.006-.008-.027-.004-.047-.007-.01.045-.02.087-.025.116-.144.021-.11-.105-.175-.128-.076-.028-.17 0-.241-.034-.204-.099-.403-.206-.632-.076a.063.063 0 01-.045 0c-.093-.038-.29-.079-.29-.079s-.09.075-.305.074c-.3.03-.552-.05-.703-.349a.583.583 0 00-.14-.162c-.03-.027-.08-.034-.12-.05-.008.013-.017.026-.024.04.023.027.042.063.072.08.136.081.212.168.305.334.082.11.21.146.285.224.242-.002.309.026.432.04zm3.882.85s-.036.214.032.327c0 0 .148-.002.342.003.195.005.387.063.58.09.05.006.123.014.15-.015a.219.219 0 00.041-.165c-.02-.141-.114-.202-.3-.187-.28.023-.56.096-.845-.052zm-12.918-1.899c-.001.148.096.267.188.293.149.043.15-.12.162-.232.001-.01.033-.098.032-.106-.01-.071-.018-.09-.059-.129-.043-.042-.149-.058-.205-.033-.06.027-.117.094-.118.207zm2.28.806l.003.674.1.032-.013-.635-.09-.072zM1.776 10.712c-.099-.105-.137-.219-.245-.303-.037-.027-.088.01-.122-.027-.063-.071-.123-.147-.19-.15-.04-.002-.086.053-.128.065-.079.022-.175.053-.219.119-.055.084-.047.194-.073.291-.051.188-.004.35.17.427.233.103.415.3.7.09.09-.066.186.013.192-.24.002-.151-.025-.202-.085-.272zm34.554 8.52c.004.027.034.054.056.06.136.034.22.055.279.229.013.037.089.051.17.098.049.028.068.104.116.123.024.01.073.01.095.01a1.9 1.9 0 01.495.152c.011.005.105-.045.182-.047.042 0 .07.045.1.049.061.006.106-.09.162-.143.01-.011-.035-.13-.07-.139-.163-.045-.222-.073-.31-.094-.09-.02-.352.022-.407-.037-.23-.245-.528-.311-.85-.3-.013 0-.02.024-.018.039zM1.462 9.298c-.028-.134-.206-.218-.323-.153-.096.055-.138.1-.257.163-.102.053-.257.132-.21.304.048.18.166.291.318.293.324.001.543-.28.472-.607zm2.864 3.337c-.072-.127-.232-.143-.304-.143-.063 0-.048.062-.15.06-.215-.006-.24.062-.244.092-.033.323.031.378.249.383.18.004.373-.024.503-.167.074-.082.105-.08.154-.125-.057-.034-.163-.02-.208-.1zm27.087 6.769c.122.098.258.18.396.255.075.04.174-.034.172-.115 0-.03-.036-.07-.037-.093-.012-.164-.003-.173-.21-.25-.074-.03-.14-.08-.21-.119-.13-.07-.169.003-.211.041.08.017-.04.204.1.28zM.492 9.567c-.051-.164-.177-.213-.32-.233-.119-.017-.194.12-.165.198.046.126.242.272.337.25.17.001.199-.046.148-.215zm34.33 8.858c-.063.007-.108.048-.048.117.097.114.442.197.648.15.045-.011.06-.054.09-.075-.218-.133-.44-.217-.69-.192zM12.066 14.87c-.022.071.118.112.299.2.173.084.383.214.49.283-.21-.206-.736-.656-.79-.483zM38 19.498l-.48-.199-.096.078-.216-.046.02.059s.506.123.772.108zm-6.88-.094a.847.847 0 00-.563-.167c.134.149.533.291.563.167zM5.325 9.594c-.003-.106-.003-.168-.076-.176-.072 0-.114.07-.13.118-.038.118.08.203.24.175a.24.24 0 01-.034-.118zm30.4 9.168c.204.148.316.217.51.098-.158-.039-.301-.116-.529-.125 0 0 .008.02.019.027zm-5.322.42c.012-.069-.182-.07-.182-.07.11.166.17.137.182.07zm-21.39-8.69V9.341l-.094 1.108.093.043z" fill="#515B76"/></svg>