<svg width="24" height="24" fill="none" xmlns="http://www.w3.org/2000/svg"><path fill-rule="evenodd" clip-rule="evenodd" d="M24 0H0v24h24V0zM3.205 9.868l.025 4.894.058.037c2.296-.834 4.445-.833 4.445-.833l-.03-3.137c-1.826-.031-4.498-.961-4.498-.961zm5.44.932l1.472-.029.03 3.195H8.704L8.645 10.8zm2.906 1.61l.95-.991.998.956-.937 1.037-1.011-1.002zm-.492-3.957l3.161-.015.03 1.495h-3.147l-.044-1.48zm1.868 6.568l2.25-2.185.97 1.13-2.118 2.104-1.102-1.05zM10.145 3.057l5.008-.024s-.996 2.741-1.028 4.526l-3.048.015s-.117-2.216-.97-4.46l.038-.057zm7.22 17.51l3.513-3.487-.014-.067c-2.23-.99-3.92-2.472-3.92-2.472l-2.138 2.122c1.272 1.28 2.558 3.904 2.558 3.904z" fill="#D34145"/></svg>