<svg width="17" height="24" fill="none" xmlns="http://www.w3.org/2000/svg"><path fill-rule="evenodd" clip-rule="evenodd" d="M5.155 2.319a.49.49 0 00-.179.272c-.095.034-.294.156-.322.373-.029.218-.25.227-.358.204 0-.353-.597-.238-.895-.136-.573.11-.835.476-.895.646a1.346 1.346 0 00-.43.714h-.214c-.201 0-.37.158-.43.238-.024.204-.1.734-.215 1.223-.114.49-.229.718-.344.946a7.08 7.08 0 00-.085.175c-.115.245-.144.737-.144.952-.035.034-.136.272-.25.952-.115.68.048 1.234.143 1.427.107.238.43.476.895.646.372.135.418.26.394.305h-.609c0 .453.022 1.394.108 1.53.107.17.143.34.179 1.121.035.782-.18 1.767-.287 2.209-.063.262.061.666.174 1.03.077.251.148.483.148.635 0 .374-.608 1.495-1.038 2.141C.158 20.439.024 22.856 0 24h2.756v-2.379c.268-1.085.602-1.401.968-1.749.173-.164.352-.334.536-.596.458-.652.458-1.413.458-1.953 0-.135 0-.256.007-.358.029-.407.18-.6.251-.645-.012.034-.014.17.072.442.107.34 1.002 1.087 1.18 1.121.144.027.323.193.395.272-.072.192-.172.639 0 .883.148.211.092.439.043.637-.023.09-.043.173-.043.247 0 .115-.05.42-.102.736-.056.338-.113.687-.113.827 0 .272 0 .782.215 1.122.172.272.143 1.042.107 1.393h2.72a4.307 4.307 0 010-.748c.025-.296-.048-1.17-.109-1.91-.03-.365-.057-.697-.07-.91-.035-.646.037-.884.18-1.326.143-.441.215-1.325.143-1.495a1.057 1.057 0 01-.053-.277c-.015-.134-.03-.273-.09-.369-.086-.135-.275-.034-.358.035a.88.88 0 00-.18-.476c-.178-.238-.393-.918-.572-1.496-.132-.425-.205-.63-.292-.87a33.439 33.439 0 01-.102-.285c-.114-.326-.477-.974-.644-1.257v-1.19a.282.282 0 01.286-.238c.13 0 .25-.036.367-.072a1.1 1.1 0 01.313-.064c.128 0 .117-.06.094-.18a1.07 1.07 0 01-.022-.33c.036-.34.18-.747.358-1.189.163-.401.03-.578-.05-.684l-.022-.03c-.071-.101-.286-.17-.572-.17-.272 0-.029-.305.089-.452l.018-.023c.107-.136.25-.204.358-.102.107.102.537.34 1.181.578.438.161.446.15.575-.011.06-.077.148-.187.32-.33.43-.353.943-1.28 1.146-1.698h.286v-.442l.358-.442v-.374l.323-.68h2.255v-.067h.071v-.102h-.143v-.102h.143V4H17v-.798h-1.821v-.204h-3.867v-.136h.108V2.66l-.18-.17v-.544c-.62.011-1.854.027-1.825 0 .115-.054.048-.159 0-.204l-.752-.476a1.933 1.933 0 00-.465-.204C8.198.246 7.386.02 6.98.008 5.835-.074 5.286.495 5.155.79c-.286.435-.12 1.042 0 1.29a.236.236 0 000 .239zM8.95 2.08h-.502c-.114.326.048.52.144.577v.136l-.287.204v.238h.215l.215-.238h.573v-.34H8.95V2.08zm.859.85v-.137h.215v.068h.143v.068h-.358zM8.556 4.798l-.322-.373h.716l-.144.271v.136h-.071v.102h-.143L8.556 4.8zm2.112.578v-.34h-.143v.17h-.072v.102h-.286v.068h.501zm-1.074.816l.358.781c.215-.102.659-.36.716-.577.057-.218.072-.43.072-.51h-.144v-.17h.144l-.072-.204h-.501c.024.181-.057.571-.573.68zM8.305 8.775c-.229.028-.334.238-.358.34.287-.299.454-.17.501-.068.115-.19-.047-.26-.143-.272zM1.468 5.887c.071.113.143.394-.143.612.012-.012.057-.15.143-.612z" fill="#515B76"/></svg>