<svg width="120" height="367" fill="none" xmlns="http://www.w3.org/2000/svg"><path d="M104.889 105.754l.983-.181-.01-.049-.973.23zm6.259 34.031l.99-.142-.006-.038-.984.18zm-59.344 115.22l-.998-.071a1 1 0 00-.002.044l1 .027zm22.752-122.998h-1c0 .03 0 .06.004.091l.996-.091zm-3.303-58.572l-.966.257.966-.257zm26.043 168.713l.998-.054-.998.054zm-.024.432l.987.162-.987-.162zm-3.05-47.917l.7-.715-.7.715zm.598 1.322l-1 .054 1-.054zm-37.645-3.739l-.502-.865.502.865zm-.991 1.587l.997.071-.997-.071zM49.93 321.366l-.962-.275.962.275zM97.855 83.56l-.096-.996.096.996zm2.14 1.53l-.973.23.973-.23zm-73.097 34.347l-.892-.452.892.452zm60.557 188.806l.648-.762-.648.762zm-.679-1.849l.987.162-.987-.162zM47.581 81.667l-.152.988.152-.988zm27.127 3.166L47.734 80.68l-.305 1.976 26.974 4.155.305-1.977zM44.6 82.288l-18.595 36.697 1.784.904 18.595-36.697-1.784-.904zm30.051 4.53l23.3-2.263-.193-1.99-23.3 2.261.193 1.991zm24.37-1.498l4.894 20.665 1.946-.461-4.894-20.665-1.946.46zm-20.635 93.466l-21.714 12.595 1.004 1.73 21.714-12.595-1.004-1.73zM48.97 321.091l-6.19 21.634 1.923.55 6.19-21.634-1.923-.55zm29.22-140.726l15.333 15.013 1.4-1.43-15.334-15.012-1.399 1.429zm8.619 128.64l20.323 17.256 1.294-1.525-20.322-17.255-1.295 1.524zm17.097-203.07l6.26 34.031 1.967-.361-6.26-34.032-1.967.362zm6.253 33.993l3.852 26.739 1.98-.285-3.852-26.739-1.98.285zm-85.963-21.001L11.92 90.289l-1.838.788 12.276 28.638 1.838-.788zm30.991 74.834l-4.38 61.173 1.995.143 4.38-61.173-1.995-.143zm-4.382 61.217l-1.797 65.865 2 .054 1.796-65.865-1.999-.054zm43.017-58.939l2.476 46.162 1.997-.107-2.476-46.163-1.997.108zm2.464 46.378L85.79 306.231l1.973.325 10.496-63.814-1.974-.325zM73.555 85.822v46.185h2V85.822h-2zm.005 46.276l4.333 47.643 1.992-.181-4.334-47.644-1.991.182zM70.185 62v10.92h2V62h-2zm.102 11.692l3.302 12.387 1.933-.515-3.303-12.387-1.932.515zm-.102-.772c0 .26.034.52.102.772l1.932-.515a1 1 0 01-.034-.257h-2zM96.297 242.2a.997.997 0 01-.012.216l1.974.325c.035-.214.047-.431.035-.648l-1.997.107zm-2.775-46.823a1 1 0 01.299.661l1.997-.108a3.001 3.001 0 00-.897-1.983l-1.399 1.43zm-36.849-3.997a3 3 0 00-1.487 2.38l1.995.143a1 1 0 01.496-.793l-1.004-1.73zm-5.781 130.26a3 3 0 00.114-.744l-1.999-.054a1.007 1.007 0 01-.038.248l1.923.55zm47.06-237.086a1 1 0 011.07.765l1.946-.461a3 3 0 00-3.21-2.295l.194 1.991zm-71.946 34.43a1 1 0 01-1.81-.058l-1.84.788c1.004 2.34 4.283 2.445 5.434.174l-1.784-.904zM88.103 307.48a1.002 1.002 0 01-.34-.925l-1.974-.325a3 3 0 001.019 2.774l1.294-1.524zM47.733 80.679a3 3 0 00-3.132 1.609l1.784.904a1 1 0 011.044-.537l.304-1.976z" fill="#DB2F3A"/></svg>