<svg width="146" height="363" fill="none" xmlns="http://www.w3.org/2000/svg"><path d="M116.5 100l.983-.183a.867.867 0 00-.01-.05l-.973.233zm6.5 35l.99-.144a.532.532 0 00-.007-.039L123 135zM61.373 253.5l-.997-.072a1 1 0 00-.003.044l1 .028zM85 127h-1a.91.91 0 00.004.091L85 127zm-3.431-60.245l.965-.26-.965.26zm27.046 173.526l.999-.054-.999.054zm-.024.436l.986.163-.986-.163zm-3.153-49.262l.696-.718-.696.718zm.604 1.327l.999-.054-.999.054zm-39.12-3.812l-.498-.867.498.867zm-.999 1.59l-.997-.072.997.072zM59.43 321.745l.96.278-.96-.278zm.078-.5l1 .028-1-.028zm51.898-242.553l.972-.232-.972.232zm-79.59 35.416l-.917.398.918-.398zm66.558 194.126l-.644.765.644-.765zM56.925 75.217l.151-.988-.15.988zm-2.082 1.067l.89.455-.89-.455zm30.308 2.227L57.076 74.23l-.301 1.977 28.074 4.283.302-1.978zm-31.198-2.683L34.541 113.77l1.78.911 19.413-37.94-1.781-.912zm31.143 4.667l24.268-2.333-.192-1.99-24.268 2.333.192 1.99zm25.336-1.57l5.095 21.308 1.946-.466-5.096-21.307-1.945.465zm-21.43 96.208l-22.578 12.97.996 1.735 22.578-12.971-.996-1.734zM58.469 321.467l-6.43 22.255 1.922.556 6.429-22.255-1.922-.556zm30.335-144.749l15.937 15.455 1.393-1.436-15.938-15.455-1.392 1.436zm8.925 132.281l21.127 17.766 1.288-1.53-21.128-17.767-1.287 1.531zm17.788-208.816l6.5 35 1.966-.366-6.5-35-1.966.366zm6.493 34.961l4 27.5 1.98-.288-4-27.5-1.98.288zm-89.277-21.433L19.918 84.103l-1.836.794 12.816 29.609 1.835-.795zm32.193 76.777l-4.55 62.94 1.995.144 4.55-62.939-1.995-.145zm-4.553 62.984l-1.866 67.745 2 .056 1.866-67.745-2-.056zm44.671-60.636l2.573 47.499 1.997-.108-2.573-47.499-1.997.108zm2.56 47.717L96.7 306.212l1.973.327 10.904-65.659-1.973-.327zM84 79.5V127h2V79.5h-2zm.004 47.591l4.5 49 1.992-.182-4.5-49-1.992.182zM80.5 55v11.236h2V55h-2zm.103 12.015l3.431 12.745 1.932-.52-3.432-12.744-1.93.52zm-.103-.78c0 .264.035.526.103.78l1.931-.52a1.001 1.001 0 01-.034-.26h-2zm27.117 174.1a1.06 1.06 0 01-.013.218l1.973.327a3.04 3.04 0 00.037-.653l-1.997.108zm-2.876-48.162a1 1 0 01.303.663l1.997-.108a3.002 3.002 0 00-.907-1.991l-1.393 1.436zm-38.317-4.07a3.001 3.001 0 00-1.498 2.385l1.995.145a.999.999 0 01.499-.795l-.996-1.735zm-6.034 133.92c.07-.244.11-.497.117-.75l-2-.056a.994.994 0 01-.038.25l1.92.556zm48.974-243.861a1 1 0 011.068.763l1.945-.465a3 3 0 00-3.205-2.289l.192 1.99zm-74.823 35.607a1 1 0 01-1.808-.058l-1.835.795c1.007 2.327 4.269 2.432 5.424.174l-1.78-.911zm64.475 193.699a.999.999 0 01-.343-.929l-1.973-.327a3 3 0 001.029 2.787l1.287-1.531zm-41.94-233.24a3 3 0 00-3.123 1.6l1.78.911a1 1 0 011.042-.533l.301-1.977z" fill="#DB2F3A"/></svg>