<svg width="111" height="290" fill="none" xmlns="http://www.w3.org/2000/svg"><path d="M99 45l.983-.183a1.084 1.084 0 00-.01-.05L99 45zm6.5 35l.99-.144a.506.506 0 00-.007-.039L105.5 80zM43.873 198.5l-.997-.072a1 1 0 00-.003.044l1 .028zM67.5 72h-1c0 .03.001.061.004.091L67.5 72zm-3.431-60.245l.965-.26-.965.26zm27.046 173.526l.999-.054-.999.054zm-.024.436l.987.163-.987-.163zm-3.153-49.262l.696-.718-.696.718zm.604 1.327l.999-.054-.999.054zm-39.12-3.812l-.498-.867.498.867zm-.999 1.59l-.997-.072.997.072zM41.93 266.745l.96.278-.96-.278zm.078-.5l1 .028-1-.028zM93.905 23.692l.972-.232-.972.232zm-79.59 35.416l-.917.398.918-.398zm66.558 194.126l-.644.765.644-.765zM39.425 20.217l.151-.988-.15.988zm-2.082 1.067l.89.455-.89-.455zm30.308 2.227L39.576 19.23l-.301 1.977 28.074 4.283.302-1.978zm-31.198-2.683L17.041 58.77l1.78.911 19.412-37.94-1.78-.912zm31.143 4.667l24.268-2.333-.192-1.99-24.268 2.333.192 1.99zm25.336-1.57l5.095 21.308 1.946-.466-5.096-21.307-1.945.465zm-21.43 96.208l-22.578 12.97.996 1.735 22.578-12.971-.996-1.734zM40.969 266.467l-6.43 22.255 1.922.556 6.429-22.255-1.922-.556zm30.335-144.749l15.937 15.455 1.393-1.436-15.938-15.455-1.392 1.436zm8.925 132.281l21.127 17.766 1.288-1.53-21.128-17.767-1.287 1.531zM98.017 45.183l6.5 35 1.966-.366-6.5-35-1.966.366zm6.493 34.96l4 27.501 1.98-.288-4-27.5-1.98.288zM15.233 58.712L2.418 29.103l-1.836.794 12.816 29.608 1.835-.794zm32.193 76.777l-4.55 62.94 1.995.144 4.55-62.939-1.995-.145zm-4.553 62.984l-1.866 67.745 2 .056 1.866-67.745-2-.056zm44.67-60.636l2.573 47.499 1.998-.108-2.573-47.499-1.997.108zm2.561 47.717L79.2 251.212l1.973.327 10.904-65.659-1.972-.327zM66.5 24.5V72h2V24.5h-2zm.004 47.591l4.5 49 1.992-.182-4.5-49-1.992.182zM63 0v11.236h2V0h-2zm.103 12.015l3.431 12.745 1.932-.52-3.432-12.744-1.93.52zm-.103-.78c0 .264.035.526.103.78l1.931-.52a1.001 1.001 0 01-.034-.26h-2zm27.117 174.1a1 1 0 01-.013.218l1.974.327c.035-.216.047-.435.036-.653l-1.998.108zm-2.876-48.162c.181.175.29.412.303.663l1.997-.108a3 3 0 00-.907-1.991l-1.393 1.436zm-38.317-4.07a3.001 3.001 0 00-1.498 2.385l1.995.145a.999.999 0 01.499-.795l-.996-1.735zm-6.034 133.92c.07-.244.11-.497.117-.75l-2-.056a.994.994 0 01-.038.25l1.92.556zM91.864 23.162a1 1 0 011.068.763l1.945-.465a3 3 0 00-3.205-2.289l.192 1.99zM17.04 58.769a1 1 0 01-1.808-.058l-1.835.794c1.007 2.328 4.269 2.433 5.424.175l-1.78-.91zm64.475 193.699a.999.999 0 01-.343-.929l-1.973-.327a3 3 0 001.029 2.787l1.287-1.531zm-41.94-233.24a3 3 0 00-3.123 1.6l1.78.911a1 1 0 011.042-.533l.301-1.977z" fill="#DB2F3A"/></svg>