<svg width="110" height="110" fill="none" xmlns="http://www.w3.org/2000/svg"><circle opacity=".05" cx="55.189" cy="55.189" r="34.189" fill="url(#paint0_linear_469_632)"/><circle opacity=".1" cx="55" cy="55" r="43.5" stroke="#3FC85D"/><circle opacity=".05" cx="55" cy="55" r="54.5" stroke="#3FC85D"/><rect x="30" y="30" width="50" height="50" rx="25" fill="#3FC85D" fill-opacity=".1"/><path d="M64 59v-8a2 2 0 00-1-1.73l-7-4a2 2 0 00-2 0l-7 4A2 2 0 0046 51v8a2 2 0 001 1.73l7 4a2 2 0 002 0l7-4A2 2 0 0064 59z" stroke="#3FC85D" stroke-width="1.5" stroke-linecap="round" stroke-linejoin="round"/><path d="M46.27 49.96L55 55.01l8.73-5.05M55 65.08V55" stroke="#3FC85D" stroke-width="1.5" stroke-linecap="round" stroke-linejoin="round"/><defs><linearGradient id="paint0_linear_469_632" x1="21.265" y1="21" x2="81.486" y2="90.226" gradientUnits="userSpaceOnUse"><stop stop-color="#678CA3"/><stop offset="1" stop-color="#6A8EA4"/></linearGradient></defs></svg>