<svg width="110" height="110" fill="none" xmlns="http://www.w3.org/2000/svg"><circle opacity=".05" cx="55.189" cy="55.189" r="34.189" fill="url(#paint0_linear_469_614)"/><circle opacity=".1" cx="55" cy="55" r="43.5" stroke="#FF7F23"/><circle opacity=".05" cx="55" cy="55" r="54.5" stroke="#FF7F23"/><rect x="30" y="30" width="50" height="50" rx="25" fill="#FF7F23" fill-opacity=".1"/><path d="M55 65c5.523 0 10-4.477 10-10s-4.477-10-10-10-10 4.477-10 10 4.477 10 10 10zM45 55h20" stroke="#FF7F23" stroke-width="1.5" stroke-linecap="round" stroke-linejoin="round"/><path d="M55 45a15.3 15.3 0 014 10 15.3 15.3 0 01-4 10 15.3 15.3 0 01-4-10 15.3 15.3 0 014-10v0z" stroke="#FF7F23" stroke-width="1.5" stroke-linecap="round" stroke-linejoin="round"/><defs><linearGradient id="paint0_linear_469_614" x1="21.265" y1="21" x2="81.486" y2="90.226" gradientUnits="userSpaceOnUse"><stop stop-color="#678CA3"/><stop offset="1" stop-color="#6A8EA4"/></linearGradient></defs></svg>