<svg width="408" height="200" viewBox="0 0 408 200" fill="none" xmlns="http://www.w3.org/2000/svg">
<path d="M113.9 137.024H96.844V159H65.192V137.024H4.51198V115.868L56.008 44.2H89.628L42.888 111.276H66.176V91.76H96.844V111.276H113.9V137.024Z" fill="white"/>
<path d="M204.551 161.296C194.711 161.296 185.964 158.945 178.311 154.244C170.657 149.543 164.644 142.709 160.271 133.744C156.007 124.669 153.875 113.955 153.875 101.6C153.875 89.2453 156.007 78.5853 160.271 69.62C164.644 60.5453 170.657 53.6573 178.311 48.956C185.964 44.2547 194.711 41.904 204.551 41.904C214.281 41.904 222.973 44.2547 230.627 48.956C238.28 53.6573 244.239 60.5453 248.503 69.62C252.876 78.5853 255.063 89.2453 255.063 101.6C255.063 113.955 252.876 124.669 248.503 133.744C244.239 142.709 238.28 149.543 230.627 154.244C222.973 158.945 214.281 161.296 204.551 161.296ZM204.551 134.728C210.017 134.728 214.336 132.104 217.507 126.856C220.787 121.499 222.427 113.08 222.427 101.6C222.427 90.12 220.787 81.756 217.507 76.508C214.336 71.1507 210.017 68.472 204.551 68.472C198.975 68.472 194.547 71.1507 191.267 76.508C188.096 81.756 186.511 90.12 186.511 101.6C186.511 113.08 188.096 121.499 191.267 126.856C194.547 132.104 198.975 134.728 204.551 134.728Z" fill="#9A53F2"/>
<path d="M204.551 161.296C194.711 161.296 185.964 158.945 178.311 154.244C170.657 149.543 164.644 142.709 160.271 133.744C156.007 124.669 153.875 113.955 153.875 101.6C153.875 89.2453 156.007 78.5853 160.271 69.62C164.644 60.5453 170.657 53.6573 178.311 48.956C185.964 44.2547 194.711 41.904 204.551 41.904C214.281 41.904 222.973 44.2547 230.627 48.956C238.28 53.6573 244.239 60.5453 248.503 69.62C252.876 78.5853 255.063 89.2453 255.063 101.6C255.063 113.955 252.876 124.669 248.503 133.744C244.239 142.709 238.28 149.543 230.627 154.244C222.973 158.945 214.281 161.296 204.551 161.296ZM204.551 134.728C210.017 134.728 214.336 132.104 217.507 126.856C220.787 121.499 222.427 113.08 222.427 101.6C222.427 90.12 220.787 81.756 217.507 76.508C214.336 71.1507 210.017 68.472 204.551 68.472C198.975 68.472 194.547 71.1507 191.267 76.508C188.096 81.756 186.511 90.12 186.511 101.6C186.511 113.08 188.096 121.499 191.267 126.856C194.547 132.104 198.975 134.728 204.551 134.728Z" fill="url(#paint0_linear_1295_1831)"/>
<path fill-rule="evenodd" clip-rule="evenodd" d="M240 92.9997C143.959 148.92 102.5 158.5 153.237 111.826C112.071 154.682 146.307 142.712 236.687 87L235.846 89.232L237.63 89.5832L235.846 91.5057L239.233 90.7796L237.731 93.2497L239.989 93.0235L240 92.9997Z" fill="#FCC135"/>
<path fill-rule="evenodd" clip-rule="evenodd" d="M236.791 106C238.808 104.988 240.509 103.391 241.692 101.398C242.876 99.405 243.493 97.0982 243.472 94.7491C249.895 93.2568 257.23 91.083 263.871 87.6989C257.722 98.8617 248.498 103.685 236.791 106ZM224 82.7226C225.845 81.3904 228.015 80.6406 230.252 80.5615C232.49 80.4824 234.702 81.0773 236.629 82.2761C241.062 77.1588 246.519 71.5774 252.629 67.2592C240.363 67.2298 231.765 73.2225 224 82.7226ZM242.829 91.6352C265.135 86.5121 277.525 77.388 280 64.2629C267.947 59.9544 254.233 66.6697 238.86 84.4088L242.829 91.6352Z" fill="url(#paint1_linear_1295_1831)"/>
<path d="M406.9 137.024H389.844V159H358.192V137.024H297.512V115.868L349.008 44.2H382.628L335.888 111.276H359.176V91.76H389.844V111.276H406.9V137.024Z" fill="white"/>
<defs>
<linearGradient id="paint0_linear_1295_1831" x1="148.371" y1="5.40976e-06" x2="319.393" y2="98.5146" gradientUnits="userSpaceOnUse">
<stop stop-color="#7C49F7"/>
<stop offset="1" stop-color="#BD5EEA"/>
</linearGradient>
<linearGradient id="paint1_linear_1295_1831" x1="280" y1="63" x2="230.282" y2="94.2271" gradientUnits="userSpaceOnUse">
<stop stop-color="white"/>
<stop offset="1" stop-color="#C1C1C1"/>
</linearGradient>
</defs>
</svg>
