<svg width="70" height="70" fill="none" xmlns="http://www.w3.org/2000/svg"><rect width="70" height="70" rx="20" fill="url(#paint0_linear_499_13233)"/><mask id="a" style="mask-type:alpha" maskUnits="userSpaceOnUse" x="0" y="0" width="70" height="70"><rect width="70" height="70" rx="20" fill="url(#paint1_linear_499_13233)"/></mask><g mask="url(#a)"><path opacity=".5" d="M-59 19.34L49.896-54l37.19 55.22S48.53-1.858 32.638 37.89C16.747 77.64-21.81 74.56-21.81 74.56L-59 19.34z" fill="url(#paint2_linear_499_13233)"/></g><g clip-path="url(#clip0_499_13233)" fill-rule="evenodd" clip-rule="evenodd"><path d="M47.055 35.115C13.392 54.127-.69 57.692 16.644 41.516c-14.43 14.57-2.43 10.5 29.25-8.44l-.295.758.626.12-.626.654 1.187-.247-.526.84.791-.078.004-.008z" fill="#fff" fill-opacity=".24"/><path d="M47.055 35.115C13.392 54.127-.69 57.692 16.644 41.516c-14.43 14.57-2.43 10.5 29.25-8.44l-.295.758.626.12-.626.654 1.187-.247-.526.84.791-.078.004-.008zm-1.345 4.77a4.187 4.187 0 001.734-1.585c.42-.687.638-1.481.63-2.29 2.273-.514 4.869-1.263 7.219-2.428-2.176 3.844-5.44 5.506-9.583 6.303zm-4.526-8.017a4.082 4.082 0 014.469-.154c1.568-1.763 3.5-3.685 5.661-5.173-4.34-.01-7.382 2.054-10.13 5.326zm6.663 3.07C55.74 33.172 60.124 30.03 61 25.508c-4.265-1.483-9.118.83-14.558 6.94l1.405 2.488z" fill="#fff" fill-opacity=".24"/><path d="M45.71 39.885a4.187 4.187 0 001.734-1.585c.42-.687.638-1.481.63-2.29 2.273-.514 4.869-1.263 7.219-2.428-2.176 3.844-5.44 5.506-9.583 6.303zm-4.526-8.017a4.082 4.082 0 014.469-.154c1.568-1.763 3.5-3.685 5.661-5.173-4.34-.01-7.382 2.054-10.13 5.326zm6.663 3.07C55.74 33.172 60.124 30.03 61 25.508c-4.265-1.483-9.118.83-14.558 6.94l1.405 2.488z" fill="#fff" fill-opacity=".68"/><path d="M19.152 42.89a19.524 19.524 0 006.528-3.238 11.246 11.246 0 01-1.028-4.856 11.052 11.052 0 011.292-5.379 9.283 9.283 0 013.604-3.685 10.39 10.39 0 015.258-1.321c3.165 0 5.824 1.267 7.976 3.802l4.715-4.452a14.985 14.985 0 00-5.599-4.266C39.678 18.498 37.191 18 34.44 18c-3.264 0-6.204.718-8.82 2.155a15.89 15.89 0 00-6.16 5.982c-1.495 2.55-2.243 5.432-2.244 8.646 0 2.987.645 5.685 1.936 8.095v.012z" fill="#F5F1F9"/><path d="M19.152 42.89a19.524 19.524 0 006.528-3.238 11.246 11.246 0 01-1.028-4.856 11.052 11.052 0 011.292-5.379 9.283 9.283 0 013.604-3.685 10.39 10.39 0 015.258-1.321c3.165 0 5.824 1.267 7.976 3.802l4.715-4.452a14.985 14.985 0 00-5.599-4.266C39.678 18.498 37.191 18 34.44 18c-3.264 0-6.204.718-8.82 2.155a15.89 15.89 0 00-6.16 5.982c-1.495 2.55-2.243 5.432-2.244 8.646 0 2.987.645 5.685 1.936 8.095v.012z" fill="#A8ACF9"/><path d="M30.193 44.187a200.27 200.27 0 01-7.173 3.456c.81.672 1.68 1.265 2.6 1.769 2.612 1.437 5.535 2.156 8.769 2.157 2.75 0 5.243-.495 7.48-1.485a14.75 14.75 0 005.62-4.31l-4.714-4.453c-2.145 2.564-4.804 3.845-7.977 3.845a10.61 10.61 0 01-4.611-.983l.006.004z" fill="#F5F1F9"/><path d="M30.193 44.187a200.27 200.27 0 01-7.173 3.456c.81.672 1.68 1.265 2.6 1.769 2.612 1.437 5.535 2.156 8.769 2.157 2.75 0 5.243-.495 7.48-1.485a14.75 14.75 0 005.62-4.31l-4.714-4.453c-2.145 2.564-4.804 3.845-7.977 3.845a10.61 10.61 0 01-4.611-.983l.006.004z" fill="#A8ACF9"/></g><defs><linearGradient id="paint0_linear_499_13233" x1=".271" y1="0" x2="61.92" y2="70.868" gradientUnits="userSpaceOnUse"><stop stop-color="#6154F5"/><stop offset="1" stop-color="#975EBA"/></linearGradient><linearGradient id="paint1_linear_499_13233" x1=".271" y1="0" x2="61.92" y2="70.868" gradientUnits="userSpaceOnUse"><stop stop-color="#6154F5"/><stop offset="1" stop-color="#975EBA"/></linearGradient><linearGradient id="paint2_linear_499_13233" x1="-4.552" y1="-17.329" x2="32.638" y2="37.89" gradientUnits="userSpaceOnUse"><stop stop-color="#1CBDF7"/><stop offset="1" stop-color="#fff" stop-opacity=".05"/></linearGradient><clipPath id="clip0_499_13233"><path fill="#fff" transform="translate(9 18)" d="M0 0h52v34H0z"/></clipPath></defs></svg>