<svg width="35" height="24" fill="none" xmlns="http://www.w3.org/2000/svg"><path fill-rule="evenodd" clip-rule="evenodd" d="M25.614 12.081C2.955 25.501-6.524 28.018 5.144 16.6c-9.712 10.285-1.635 7.412 19.688-5.957l-.198.535.42.085-.42.46.799-.173-.355.592.533-.054.003-.006z" fill="#FCC135"/><path fill-rule="evenodd" clip-rule="evenodd" d="M24.709 15.448c.48-.246.885-.634 1.167-1.119a3.164 3.164 0 00.424-1.616c1.53-.363 3.277-.892 4.859-1.714-1.465 2.714-3.662 3.886-6.45 4.45zm-3.047-5.66a2.67 2.67 0 011.49-.525 2.65 2.65 0 011.518.417c1.056-1.244 2.356-2.6 3.811-3.65-2.921-.008-4.97 1.449-6.819 3.759zm4.485 2.168C31.46 10.71 34.41 8.492 35 5.3c-2.87-1.048-6.137.585-9.799 4.898l.946 1.757z" fill="url(#paint0_linear_125_1809)"/><path fill-rule="evenodd" clip-rule="evenodd" d="M6.833 17.57a12.908 12.908 0 004.394-2.286 8.268 8.268 0 01-.692-3.428 8.112 8.112 0 01.87-3.797 6.418 6.418 0 012.425-2.601 6.738 6.738 0 013.54-.933c2.13 0 3.92.895 5.368 2.684l3.173-3.142a10.153 10.153 0 00-3.768-3.011C20.648.352 18.975 0 17.123 0c-2.197 0-4.176.507-5.937 1.521-1.716.974-3.15 2.434-4.145 4.223-1.007 1.8-1.51 3.834-1.511 6.103 0 2.109.434 4.013 1.303 5.714v.008z" fill="#882BCF"/><path fill-rule="evenodd" clip-rule="evenodd" d="M6.833 17.57a12.908 12.908 0 004.394-2.286 8.268 8.268 0 01-.692-3.428 8.112 8.112 0 01.87-3.797 6.418 6.418 0 012.425-2.601 6.738 6.738 0 013.54-.933c2.13 0 3.92.895 5.368 2.684l3.173-3.142a10.153 10.153 0 00-3.768-3.011C20.648.352 18.975 0 17.123 0c-2.197 0-4.176.507-5.937 1.521-1.716.974-3.15 2.434-4.145 4.223-1.007 1.8-1.51 3.834-1.511 6.103 0 2.109.434 4.013 1.303 5.714v.008z" fill="url(#paint1_linear_125_1809)"/><path fill-rule="evenodd" clip-rule="evenodd" d="M14.265 18.485a131.464 131.464 0 01-4.828 2.44c.545.474 1.13.892 1.75 1.248 1.758 1.014 3.725 1.522 5.902 1.523 1.85 0 3.529-.35 5.034-1.049a9.999 9.999 0 003.783-3.042l-3.173-3.143c-1.443 1.81-3.233 2.714-5.369 2.714a6.861 6.861 0 01-3.103-.694l.004.003z" fill="#6915BF"/><path fill-rule="evenodd" clip-rule="evenodd" d="M14.265 18.485a131.464 131.464 0 01-4.828 2.44c.545.474 1.13.892 1.75 1.248 1.758 1.014 3.725 1.522 5.902 1.523 1.85 0 3.529-.35 5.034-1.049a9.999 9.999 0 003.783-3.042l-3.173-3.143c-1.443 1.81-3.233 2.714-5.369 2.714a6.861 6.861 0 01-3.103-.694l.004.003z" fill="url(#paint2_linear_125_1809)"/><defs><linearGradient id="paint0_linear_125_1809" x1="21.714" y1="4.994" x2="31.701" y2="17.984" gradientUnits="userSpaceOnUse"><stop stop-color="#7C49F7"/><stop offset="1" stop-color="#BD5EEA"/></linearGradient><linearGradient id="paint1_linear_125_1809" x1="5.609" y1="0" x2="22.735" y2="20.255" gradientUnits="userSpaceOnUse"><stop stop-color="#7C49F7"/><stop offset="1" stop-color="#BD5EEA"/></linearGradient><linearGradient id="paint2_linear_125_1809" x1="10.798" y1="18.581" x2="18.14" y2="27.021" gradientUnits="userSpaceOnUse"><stop stop-color="#7C49F7"/><stop offset="1" stop-color="#BD5EEA"/></linearGradient></defs></svg>