<svg width="26" height="26" viewBox="0 0 26 26" fill="none" xmlns="http://www.w3.org/2000/svg">
<rect width="26" height="26" rx="5" fill="#151823" fill-opacity="0.68"/>
<path fill-rule="evenodd" clip-rule="evenodd" d="M9.74964 20.5H16.2496C18.7923 20.5 20.5 18.7164 20.5 16.0625V9.93754C20.5 7.28358 18.7923 5.5 16.2504 5.5H9.74964C7.20767 5.5 5.5 7.28358 5.5 9.93754V16.0625C5.5 18.7164 7.20767 20.5 9.74964 20.5ZM10.3741 12.25C9.34016 12.25 8.5 11.4087 8.5 10.375C8.5 9.3413 9.34016 8.5 10.3741 8.5C11.4074 8.5 12.2483 9.3413 12.2483 10.375C12.2483 11.4087 11.4074 12.25 10.3741 12.25ZM18.8656 15.2004C19.1168 15.8444 18.9863 16.6184 18.7178 17.2562C18.3995 18.0147 17.7901 18.589 17.0224 18.8398C16.6815 18.9512 16.324 19 15.9673 19H9.64648C9.0175 19 8.46091 18.849 8.00463 18.5681C7.71879 18.3916 7.66826 17.9845 7.88019 17.7206C8.23465 17.2794 8.58459 16.8367 8.93755 16.3901C9.61028 15.5356 10.0635 15.2879 10.5673 15.5054C10.7717 15.5952 10.9769 15.7299 11.188 15.8723C11.7507 16.2546 12.5327 16.7802 13.563 16.2097C14.268 15.8149 14.6769 15.1376 15.0329 14.5478L15.0389 14.5379C15.0641 14.4965 15.0891 14.4551 15.1141 14.4139L15.1141 14.4139C15.2337 14.2159 15.3518 14.0205 15.4854 13.8405C15.6528 13.6153 16.2735 12.911 17.0774 13.4125C17.5895 13.7283 18.0202 14.1556 18.481 14.613C18.6567 14.7879 18.7819 14.9868 18.8656 15.2004Z" fill="#D8DEEC"/>
</svg>
