<svg width="111" height="26" fill="none" xmlns="http://www.w3.org/2000/svg"><path fill-rule="evenodd" clip-rule="evenodd" d="M28.167 14.418C3.119 27.636-7.36 30.115 5.539 18.868-5.198 28.998 3.73 26.168 27.303 13l-.22.528.466.083-.466.454.884-.172-.392.584.589-.053.003-.006zm-.869 3.638a3.157 3.157 0 001.327-1.16c.32-.502.488-1.083.482-1.675 1.74-.376 3.726-.924 5.525-1.776-1.666 2.812-4.164 4.027-7.334 4.61zm-3.465-5.865a3.237 3.237 0 013.42-.113c1.201-1.289 2.68-2.695 4.334-3.783-3.322-.007-5.65 1.503-7.754 3.896zm5.1 2.245C34.974 13.146 38.33 10.848 39 7.54c-3.264-1.085-6.978.607-11.142 5.076l1.075 1.82z" fill="#9562EE"/><path fill-rule="evenodd" clip-rule="evenodd" d="M7.955 19.5a14.437 14.437 0 004.905-2.537 9.134 9.134 0 01-.773-3.805 8.962 8.962 0 01.97-4.213 7.14 7.14 0 012.708-2.887 7.554 7.554 0 013.95-1.036c2.379 0 4.376.993 5.993 2.98l3.542-3.488a11.322 11.322 0 00-4.206-3.342C23.375.39 21.508 0 19.44 0c-2.453 0-4.662.563-6.627 1.688-1.916 1.08-3.517 2.702-4.627 4.687C7.063 8.372 6.5 10.63 6.5 13.149c0 2.34.485 4.454 1.455 6.342v.009zm8.277 1.037c-1.971.978-3.77 1.83-5.399 2.558.61.497 1.265.936 1.957 1.309 1.966 1.063 4.166 1.595 6.6 1.596 2.07 0 3.946-.366 5.63-1.1a11.082 11.082 0 004.23-3.189l-3.548-3.294c-1.614 1.896-3.615 2.845-6.004 2.845a8.1 8.1 0 01-3.47-.728l.004.003z" fill="#9562EE"/><path d="M47.825 13.072c0-.97.21-1.834.63-2.59a4.456 4.456 0 011.75-1.778c.756-.43 1.61-.644 2.562-.644 1.167 0 2.166.308 2.996.924.83.616 1.386 1.456 1.666 2.52h-2.632a2.112 2.112 0 00-.84-.938 2.305 2.305 0 00-1.218-.322c-.737 0-1.334.257-1.792.77-.457.513-.686 1.2-.686 2.058 0 .859.229 1.545.686 2.058.458.513 1.055.77 1.792.77a2.3 2.3 0 001.218-.322c.364-.215.644-.527.84-.938h2.632c-.28 1.064-.835 1.904-1.666 2.52-.83.607-1.83.91-2.996.91-.952 0-1.806-.21-2.562-.63a4.577 4.577 0 01-1.75-1.778c-.42-.756-.63-1.62-.63-2.59zm14.626 5.04c-.765 0-1.456-.163-2.072-.49a3.648 3.648 0 01-1.442-1.4c-.345-.607-.518-1.316-.518-2.128 0-.803.178-1.507.532-2.114a3.598 3.598 0 011.456-1.414c.616-.327 1.307-.49 2.072-.49.766 0 1.456.163 2.072.49a3.597 3.597 0 011.456 1.414c.355.607.532 1.311.532 2.114 0 .803-.182 1.512-.546 2.128a3.6 3.6 0 01-1.47 1.4c-.616.327-1.306.49-2.072.49zm0-2.072c.458 0 .845-.168 1.162-.504.327-.336.49-.817.49-1.442s-.158-1.106-.476-1.442a1.494 1.494 0 00-1.148-.504 1.51 1.51 0 00-1.162.504c-.308.327-.462.807-.462 1.442 0 .625.15 1.106.448 1.442.308.336.691.504 1.148.504zm7.752-8.4V18H67.81V7.64h2.394zm4.13 0V18h-2.395V7.64h2.394zm1.258 6.44c0-.803.15-1.507.448-2.114.308-.607.724-1.073 1.246-1.4a3.234 3.234 0 011.75-.49c.55 0 1.032.112 1.442.336.42.224.742.518.966.882v-1.106h2.394V18h-2.394v-1.106a2.57 2.57 0 01-.98.882c-.41.224-.891.336-1.442.336a3.21 3.21 0 01-1.736-.49c-.522-.336-.938-.807-1.246-1.414-.298-.616-.448-1.325-.448-2.128zm5.852.014c0-.597-.168-1.069-.504-1.414a1.593 1.593 0 00-1.204-.518c-.476 0-.882.173-1.218.518-.326.336-.49.803-.49 1.4 0 .597.164 1.073.49 1.428.336.345.742.518 1.218.518s.878-.173 1.204-.518c.336-.345.504-.817.504-1.414zm6.52-2.8a2.61 2.61 0 01.966-.882c.41-.224.891-.336 1.442-.336a3.23 3.23 0 011.75.49c.523.327.934.793 1.232 1.4.308.607.462 1.311.462 2.114 0 .803-.154 1.512-.462 2.128a3.443 3.443 0 01-1.232 1.414 3.234 3.234 0 01-1.75.49c-.541 0-1.022-.112-1.442-.336a2.644 2.644 0 01-.966-.868v4.816H85.57V10.188h2.394v1.106zm3.416 2.786c0-.597-.168-1.064-.504-1.4a1.609 1.609 0 00-1.218-.518c-.476 0-.882.173-1.218.518-.326.345-.49.817-.49 1.414s.163 1.069.49 1.414c.336.345.742.518 1.218.518s.882-.173 1.218-.518c.336-.355.504-.83.504-1.428zm6.87 4.032c-.681 0-1.288-.117-1.82-.35-.532-.233-.952-.55-1.26-.952a2.56 2.56 0 01-.518-1.372h2.366a.91.91 0 00.378.658c.224.168.5.252.826.252.299 0 .528-.056.686-.168a.55.55 0 00.252-.462c0-.224-.117-.387-.35-.49-.233-.112-.611-.233-1.134-.364a11.45 11.45 0 01-1.4-.406 2.514 2.514 0 01-.966-.686c-.27-.317-.406-.742-.406-1.274 0-.448.121-.854.364-1.218.252-.373.616-.667 1.092-.882.486-.215 1.06-.322 1.722-.322.98 0 1.75.243 2.31.728.569.485.896 1.13.98 1.932h-2.212a.943.943 0 00-.364-.644c-.196-.159-.457-.238-.784-.238-.28 0-.495.056-.644.168a.497.497 0 00-.224.434c0 .224.117.392.35.504.243.112.616.224 1.12.336.579.15 1.05.299 1.414.448a2.3 2.3 0 01.952.7c.28.317.425.747.434 1.288 0 .457-.131.868-.392 1.232-.252.355-.621.635-1.106.84-.476.205-1.031.308-1.666.308zm11.993-4.144c0 .224-.014.457-.042.7h-5.418c.037.485.191.859.462 1.12.28.252.62.378 1.022.378.597 0 1.012-.252 1.246-.756h2.548a3.46 3.46 0 01-.714 1.386c-.336.41-.761.733-1.274.966a4.12 4.12 0 01-1.722.35c-.766 0-1.447-.163-2.044-.49a3.481 3.481 0 01-1.4-1.4c-.336-.607-.504-1.316-.504-2.128s.163-1.521.49-2.128a3.481 3.481 0 011.4-1.4c.597-.327 1.283-.49 2.058-.49.756 0 1.428.159 2.016.476.588.317 1.045.77 1.372 1.358.336.588.504 1.274.504 2.058zm-2.45-.63c0-.41-.14-.737-.42-.98-.28-.243-.63-.364-1.05-.364-.402 0-.742.117-1.022.35-.271.233-.439.565-.504.994h2.996z" fill="#9562EE"/></svg>