<svg width="110" height="110" fill="none" xmlns="http://www.w3.org/2000/svg"><circle opacity=".05" cx="55.189" cy="55.189" r="34.189" fill="url(#paint0_linear_649_1955)"/><circle opacity=".1" cx="55" cy="55" r="43.5" stroke="#4680CA"/><circle opacity=".05" cx="55" cy="55" r="54.5" stroke="#4680CA"/><rect x="30" y="30" width="50" height="50" rx="25" fill="#4799F4" fill-opacity=".1"/><path clip-rule="evenodd" d="M63.807 50.624l-.623-1.08a1.913 1.913 0 00-2.608-.705v0a1.904 1.904 0 01-2.61-.678 1.832 1.832 0 01-.255-.915v0a1.913 1.913 0 00-1.913-1.968h-1.255a1.904 1.904 0 00-1.903 1.913v0a1.913 1.913 0 01-1.913 1.886 1.83 1.83 0 01-.916-.257v0a1.913 1.913 0 00-2.608.705l-.669 1.099a1.913 1.913 0 00.696 2.608v0a1.913 1.913 0 010 3.314v0a1.904 1.904 0 00-.696 2.6v0l.632 1.088a1.913 1.913 0 002.609.742v0a1.895 1.895 0 012.6.696c.164.277.252.593.255.915v0c0 1.056.857 1.913 1.913 1.913h1.255c1.052 0 1.907-.85 1.913-1.904v0a1.904 1.904 0 011.913-1.913c.321.009.636.097.915.256v0a1.913 1.913 0 002.609-.695v0l.659-1.099a1.904 1.904 0 00-.696-2.608v0a1.904 1.904 0 01-.696-2.61 1.88 1.88 0 01.696-.695v0a1.913 1.913 0 00.696-2.6v0-.008z" stroke="#4799F4" stroke-width="1.5" stroke-linecap="round" stroke-linejoin="round"/><circle cx="55.175" cy="54.889" r="2.636" stroke="#4799F4" stroke-width="1.5" stroke-linecap="round" stroke-linejoin="round"/><defs><linearGradient id="paint0_linear_649_1955" x1="21.265" y1="21" x2="81.486" y2="90.226" gradientUnits="userSpaceOnUse"><stop stop-color="#678CA3"/><stop offset="1" stop-color="#6A8EA4"/></linearGradient></defs></svg>